# xmcd
#
# Track frame offsets:
#	150
#	16322
#	32636
#	46063
#	64663
#	88152
#	102412
#	119528
#	137002
#	156087
#	180767
#	194661
#	210453
#
# Disc length: 2981 seconds
# Revision: 0
# Processed by: cddbd v1.5.2PL0 Copyright (c) Steve Scherf et al.
# Submitted via: dBpowerAMP V12.0
#
DISCID=aa0ba30d
DTITLE=The Texas Tenors - You Should Dream
DYEAR=2013
DGENRE=Country
TTITLE0=What Am I Gonna Dram About
TTITLE1=The Climb
TTITLE2=God Bless The U.S.A.
TTITLE3=You Should Dream
TTITLE4=Wild Horses
TTITLE5=Rocky Top
TTITLE6=Bless The Broken Road
TTITLE7=Unchained Melody
TTITLE8=My Way
TTITLE9=Vincero Perdero
TTITLE10=Nessun Dorma
TTITLE11=Somehwere
TTITLE12=Oh Shenandoah
EXTD=
EXTT0=
EXTT1=
EXTT2=
EXTT3=
EXTT4=
EXTT5=
EXTT6=
EXTT7=
EXTT8=
EXTT9=
EXTT10=
EXTT11=
EXTT12=
PLAYORDER=
